<?xml version="1.0" encoding="UTF-8"?>
<svg version="1.1" xmlns="http://www.w3.org/2000/svg" width="3508" height="2481">
<path d="M0 0 C9.49680474 9.06795829 18.36459792 18.36233065 25.96337891 29.08447266 C26.50027344 29.84179688 27.03716797 30.59912109 27.59033203 31.37939453 C55.68668339 71.44916281 72.25547344 116.88214245 83.96337891 164.08447266 C84.22352783 165.10694092 84.48367676 166.12940918 84.75170898 167.18286133 C87.42760733 178.52836345 88.4001328 190.06572248 89.52587891 201.64697266 C89.74487908 203.85002377 89.96395517 206.05306733 90.18310547 208.25610352 C91.75066554 224.17913241 93.16517835 240.10187468 93.96337891 256.08447266 C94.00467926 256.86256287 94.04597961 257.64065308 94.08853149 258.44232178 C95.04699402 276.82042622 95.16542691 295.18709345 95.15087891 313.58447266 C95.15061203 314.34303558 95.15034515 315.10159851 95.15007019 315.88314819 C95.13929657 340.33412357 94.81390443 364.6935866 92.96337891 389.08447266 C92.90021484 389.93974548 92.83705078 390.79501831 92.77197266 391.6762085 C88.66904757 447.09712273 80.52759515 501.9480429 67.96337891 556.08447266 C67.70651306 557.19184784 67.70651306 557.19184784 67.44445801 558.32159424 C47.44908053 644.13998662 15.48838136 728.41391995 -56.03662109 846.08447266 C-56.81924316 847.22650146 -56.81924316 847.22650146 -57.61767578 848.39160156 C-65.28357253 859.54541498 -73.19356053 870.46527275 -81.51806641 881.13671875 C-82.97581746 883.00648368 -84.42495692 884.8826264 -85.87255859 886.76025391 C-91.85054834 894.48058302 -98.09745517 901.93195849 -104.49853516 909.30371094 C-106.0819872 911.13699653 -107.65088456 912.9818706 -109.21630859 914.83056641 C-118.36502597 925.62157907 -118.36502597 925.62157907 -123.36181641 930.40869141 C-125.03258857 932.08043778 -126.55438057 933.8180001 -128.08349609 935.61962891 C-132.64415285 940.86405399 -137.55117271 945.74501765 -142.47412109 950.64697266 C-143.37710938 951.55382813 -144.28009766 952.46068359 -145.21044922 953.39501953 C-149.75767249 957.9356574 -154.35633188 962.34227209 -159.23364258 966.52661133 C-162.01146906 968.92678882 -164.67180597 971.44856582 -167.34912109 973.95947266 C-172.11271157 978.38590304 -176.9773026 982.61971938 -182.05224609 986.68994141 C-184.26689652 988.46687951 -186.4615449 990.25943068 -188.64599609 992.07275391 C-197.76998106 999.61992359 -207.16201484 1006.67892426 -216.828125 1013.515625 C-218.93263297 1015.01060269 -221.02333767 1016.52290565 -223.11083984 1018.04150391 C-242.16258829 1031.82224555 -262.3918485 1043.86084588 -283.03662109 1055.08447266 C-284.06561523 1055.64489258 -285.09460937 1056.2053125 -286.15478516 1056.78271484 C-334.18382136 1082.75266946 -385.85435162 1102.42156673 -439.91162109 1110.89697266 C-440.91724091 1111.05508926 -440.91724091 1111.05508926 -441.94317627 1111.21640015 C-457.62448329 1113.6545506 -472.94496102 1114.32491201 -488.78662109 1114.33447266 C-490.29278488 1114.33548477 -490.29278488 1114.33548477 -491.82937622 1114.33651733 C-506.76606309 1114.32057319 -521.33180115 1113.96252242 -536.03662109 1111.08447266 C-536.97393066 1110.90223145 -537.91124023 1110.71999023 -538.87695312 1110.53222656 C-582.94905318 1101.69121705 -621.51349464 1082.12506343 -654.03662109 1051.08447266 C-654.83841797 1050.32392578 -655.64021484 1049.56337891 -656.46630859 1048.77978516 C-662.14745681 1043.25590056 -667.13209991 1037.30018563 -672.03662109 1031.08447266 C-672.82939453 1030.10865234 -673.62216797 1029.13283203 -674.43896484 1028.12744141 C-732.16617498 955.6264429 -742.30870778 853.87322088 -733.03662109 745.08447266 C-724.20074575 668.36555895 -701.64174468 593.88006943 -618.4453125 413.53466797 C-616.57214856 410.27659634 -614.78255522 406.97627661 -612.99414062 403.67114258 C-608.39157628 395.1684573 -603.56941904 386.81510312 -598.59912109 378.52197266 C-598.02693848 377.56629395 -597.45475586 376.61061523 -596.86523438 375.62597656 C-587.07450334 359.40032892 -576.77209277 343.49843721 -566.34545898 327.67626953 C-564.4681836 324.82545603 -562.59706579 321.97066297 -560.72607422 319.11572266 C-554.15286327 309.11590818 -547.43273168 299.2879103 -540.24957275 289.71621704 C-538.09976499 286.82415064 -536.00671176 283.89129619 -533.91162109 280.95947266 C-533.18716797 279.94626953 -532.46271484 278.93306641 -531.71630859 277.88916016 C-531.31669922 277.31512451 -530.91708984 276.74108887 -530.50537109 276.1496582 C-529.37949233 274.56657834 -528.21594 273.01023396 -527.03662109 271.46655273 C-520.63942852 262.8025349 -516.4856335 253.69308342 -512.40908813 243.75546265 C-510.48300468 239.06496425 -508.50340252 234.3969859 -506.53271484 229.72509766 C-506.14476242 228.80162033 -505.75681 227.87814301 -505.35710144 226.92668152 C-482.52479733 172.66452397 -452.99111809 121.22488 -415.03662109 76.08447266 C-414.19268799 75.0698999 -413.34875488 74.05532715 -412.47924805 73.01000977 C-405.47623775 64.66017752 -398.07612876 56.81061412 -390.34545898 49.13256836 C-388.46473581 47.26264125 -386.5950529 45.38214627 -384.72607422 43.50048828 C-377.8007457 36.56759091 -370.73945857 30.15330026 -363.03662109 24.08447266 C-361.99671764 23.21010668 -360.96158232 22.32997742 -359.93505859 21.43994141 C-333.48294299 -1.28594739 -302.24573979 -18.85904758 -270.03662109 -31.91552734 C-269.24787598 -32.23859863 -268.45913086 -32.56166992 -267.64648438 -32.89453125 C-185.18201483 -66.26834528 -72.7878437 -66.14241668 0 0 Z M-328.03662109 66.08447266 C-328.60783691 66.514375 -329.17905273 66.94427734 -329.76757812 67.38720703 C-337.6232776 73.31522041 -344.98138317 79.62547937 -352.14208984 86.37353516 C-354.4617745 88.54608731 -356.80795476 90.64677354 -359.22412109 92.70947266 C-365.96925901 98.5581049 -372.18211256 104.9623278 -377.98876953 111.73706055 C-387.3347028 122.45012067 -397.33791797 132.48290686 -407.48120117 142.43310547 C-414.83750142 149.65926919 -421.66965706 156.95643347 -428.03662109 165.08447266 C-429.04939049 166.32768981 -430.06467476 167.56886648 -431.08349609 168.80712891 C-436.63860416 175.64495645 -442.00981946 182.60805604 -447.22412109 189.70947266 C-447.78905273 190.46752197 -448.35398437 191.22557129 -448.93603516 192.0065918 C-452.72883576 197.04404002 -452.72883576 197.04404002 -454.03662109 203.08447266 C-452.53662109 205.58447266 -452.53662109 205.58447266 -450.03662109 207.08447266 C-445.26604715 206.72884805 -441.24645865 204.36532465 -437.03662109 202.27197266 C-415.24284162 191.77754807 -391.21850903 188.53756888 -368.00146484 196.37353516 C-338.14716362 207.31873552 -317.80373754 232.83485172 -304.74707031 260.8515625 C-296.16157148 279.89092368 -290.08687331 299.30300774 -285.72412109 319.70947266 C-285.36012207 321.38626099 -285.36012207 321.38626099 -284.98876953 323.09692383 C-281.1277453 342.11943113 -280.65986405 361.29592032 -280.72412109 380.64697266 C-280.72594391 381.7898877 -280.72776672 382.93280273 -280.72964478 384.11035156 C-280.77570868 401.28753533 -281.31291869 418.09388417 -284.03662109 435.08447266 C-284.20822754 436.21530273 -284.37983398 437.34613281 -284.55664062 438.51123047 C-292.9710712 493.17871062 -312.97605923 546.65319866 -349.74902344 588.61328125 C-350.93357048 589.96672844 -352.1048919 591.33172076 -353.27490234 592.69775391 C-375.56325441 618.2458284 -405.86782287 637.1097349 -440.03662109 641.08447266 C-465.2304744 642.4243511 -485.94408826 637.57015404 -506.03662109 622.08447266 C-506.78427734 621.50955078 -507.53193359 620.93462891 -508.30224609 620.34228516 C-544.39906817 590.64056936 -553.44772898 535.71163014 -557.78662109 491.93237305 C-562.61179935 436.9658649 -555.58497883 379.89369823 -539.37036133 327.16796875 C-538.15183192 323.15569436 -538.15183192 323.15569436 -539.03662109 319.08447266 C-558.49104641 344.33897508 -574.76731508 373.22414735 -589.61376953 401.38574219 C-590.94660301 403.91373485 -592.29048159 406.43547743 -593.63818359 408.95556641 C-595.70656722 412.83475214 -597.74575288 416.72817572 -599.76660156 420.63232422 C-600.63179036 422.30282715 -601.50076123 423.97137543 -602.37304688 425.63818359 C-644.57846089 506.5405658 -673.09941544 599.2509244 -680.03662109 693.08447266 C-680.16472168 694.83594604 -680.16472168 694.83594604 -680.29541016 696.62280273 C-681.14136758 708.91689845 -681.27959552 721.20197702 -681.28662109 733.52197266 C-681.28729584 734.59517761 -681.28797058 735.66838257 -681.28866577 736.77410889 C-681.23370442 792.18850554 -672.81172031 848.98532763 -648.03662109 899.08447266 C-647.63830078 899.89352051 -647.23998047 900.70256836 -646.82958984 901.53613281 C-624.8451415 945.74057717 -590.08429526 981.59782324 -542.76269531 997.86621094 C-537.58123273 999.54420156 -532.35256288 1000.90518376 -527.03662109 1002.08447266 C-525.93157227 1002.33003906 -525.93157227 1002.33003906 -524.80419922 1002.58056641 C-481.14878656 1011.74328095 -431.65140119 1001.42177857 -390.03662109 988.08447266 C-389.18874023 987.81554199 -388.34085938 987.54661133 -387.46728516 987.26953125 C-332.7835381 969.70412331 -282.85977229 937.73453625 -240.98583984 898.78759766 C-238.81464519 896.7737631 -236.5887108 894.83694262 -234.34130859 892.90869141 C-229.15560058 888.38769185 -224.32646606 883.52009855 -219.47412109 878.64697266 C-218.56726562 877.74398437 -217.66041016 876.84099609 -216.72607422 875.91064453 C-211.61909571 870.79625923 -206.73731828 865.57214666 -202.03662109 860.08447266 C-200.58216592 858.47678893 -199.12441214 856.87207551 -197.66162109 855.27197266 C-192.93148834 850.02248411 -188.45113159 844.60078659 -184.03662109 839.08447266 C-183.62718262 838.57464844 -183.21774414 838.06482422 -182.79589844 837.53955078 C-126.71567685 767.56239761 -85.76587727 687.1165172 -10.78662109 402.95947266 C-10.70939819 402.26383209 -10.63217529 401.56819153 -10.5526123 400.85147095 C-9.97812642 395.60149964 -9.4872175 390.34645804 -9.03662109 385.08447266 C-8.94941803 384.07171265 -8.86221497 383.05895264 -8.77236938 382.01550293 C-7.1774597 362.91868268 -6.6692653 343.92939856 -6.71856308 324.78063202 C-6.7242228 322.54428536 -6.72703099 320.30794634 -6.72964478 318.07159424 C-6.76773229 295.63413096 -7.23143771 273.37106052 -10.03662109 251.08447266 C-10.1674408 250.0197876 -10.1674408 250.0197876 -10.30090332 248.93359375 C-17.66003452 189.25424512 -33.77963406 124.68049446 -74.03662109 78.08447266 C-75.05949219 76.89724609 -75.05949219 76.89724609 -76.10302734 75.68603516 C-78.37323116 73.11124228 -80.69298638 70.59257297 -83.03662109 68.08447266 C-83.89642578 67.14732422 -84.75623047 66.21017578 -85.64208984 65.24462891 C-97.94819677 52.16505716 -113.06679719 42.1599547 -129.03662109 34.08447266 C-130.14908203 33.52115234 -131.26154297 32.95783203 -132.40771484 32.37744141 C-196.27366641 2.66360057 -274.80555117 25.46959804 -328.03662109 66.08447266 Z M-470.03662109 234.08447266 C-470.69146484 234.62201172 -471.34630859 235.15955078 -472.02099609 235.71337891 C-481.09346206 243.72203803 -485.3374491 257.70051486 -489.34912109 268.77197266 C-489.57829224 269.40187103 -489.80746338 270.03176941 -490.0435791 270.68075562 C-502.81753921 305.96666006 -511.60621343 342.82084706 -516.03662109 380.08447266 C-516.26091797 381.97045166 -516.26091797 381.97045166 -516.48974609 383.89453125 C-520.40597716 417.81298598 -520.72222052 452.22972956 -516.03662109 486.08447266 C-515.90803711 487.01372559 -515.77945313 487.94297852 -515.64697266 488.90039062 C-511.74821949 515.17481239 -502.00686142 542.39151162 -485.03662109 563.08447266 C-484.36373047 563.93138672 -483.69083984 564.77830078 -482.99755859 565.65087891 C-472.89052275 577.68743977 -457.61556636 587.8227061 -441.65356445 589.3059082 C-423.26093819 590.14838713 -409.00121238 585.90723679 -393.03662109 577.08447266 C-391.55162109 576.2665625 -391.55162109 576.2665625 -390.03662109 575.43212891 C-382.64112754 571.03567998 -376.56772485 565.38255189 -370.42285156 559.42382812 C-369.29949909 558.33846151 -368.15714804 557.27278172 -367.00927734 556.21337891 C-330.66438796 521.9209068 -314.25353255 462.40018779 -306.03662109 415.08447266 C-305.76978516 413.59608887 -305.76978516 413.59608887 -305.49755859 412.07763672 C-300.5923774 383.57113728 -300.66593841 351.53138535 -306.03662109 323.08447266 C-306.16520508 322.359375 -306.29378906 321.63427734 -306.42626953 320.88720703 C-312.63392505 286.92675064 -328.27072286 251.5031854 -353.03662109 227.08447266 C-353.69919922 226.42318359 -354.36177734 225.76189453 -355.04443359 225.08056641 C-369.6134787 211.45637569 -387.67846782 205.46889476 -407.39208984 205.80712891 C-430.73319157 206.78883249 -452.92842379 218.87403896 -470.03662109 234.08447266 Z " fill="#000000" transform="translate(1321.03662109375,459.91552734375)"/>
<path d="M0 0 C43.40537362 35.30128875 53.85410499 104.65067804 61.67089844 156.70507812 C61.79409454 157.52267609 61.91729065 158.34027405 62.04421997 159.18264771 C63.81121594 171.01401332 65.18704594 182.86313525 66.35839844 194.76757812 C71.64111908 184.82337557 76.8506138 174.85369216 81.85839844 164.76757812 C86.53608663 155.35348252 91.35516804 146.02415915 96.30517578 136.75048828 C97.22636363 135.01616105 98.13162537 133.27339369 99.03417969 131.52929688 C113.68352005 103.6126294 138.83168881 80.20128073 169.08105469 70.67773438 C183.23097337 66.74813836 198.21385816 67.35258703 211.24902344 74.31054688 C227.62287156 84.08564473 239.12090269 101.43905867 248.35839844 117.76757812 C248.70290039 118.36376953 249.04740234 118.95996094 249.40234375 119.57421875 C261.97171901 141.46635036 269.43678727 165.60372142 277.47387695 189.40673828 C310.73080937 292.86098073 310.73080937 292.86098073 363.35839844 386.76757812 C328.29842415 382.87104257 293.8052695 354.90011083 271.98339844 328.64257812 C270.43320121 326.69099054 268.89246452 324.73187108 267.35839844 322.76757812 C266.87113281 322.15672363 266.38386719 321.54586914 265.88183594 320.91650391 C257.46607874 310.36312365 250.03313244 299.50066465 243.35839844 287.76757812 C242.92398438 287.00719238 242.48957031 286.24680664 242.04199219 285.46337891 C231.27253169 266.39580799 224.89638184 246.70383548 219.22558594 225.61914062 C211.13094698 194.48259282 211.13094698 194.48259282 190.15527344 171.64257812 C185.37196965 169.31331715 181.00939873 168.95801633 175.88964844 170.52148438 C161.69217466 175.97382747 156.29588664 186.01571756 150.23339844 199.20507812 C143.61433178 214.35729239 140.4138982 230.31061969 137.14135742 246.44213867 C125.6281599 303.17796188 125.6281599 303.17796188 106.35839844 324.76757812 C105.68421875 325.58355469 105.01003906 326.39953125 104.31542969 327.24023438 C91.55750436 342.27553071 71.88573126 355.24994281 51.83203125 356.98632812 C31.16492956 358.1618476 14.1933101 353.62655627 -1.64160156 339.76757812 C-30.5667937 313.33824232 -37.46949452 275.30612345 -39.20410156 237.79101562 C-39.64406593 227.95108451 -39.69168512 218.12605749 -39.63378906 208.27929688 C-39.62994328 207.55817404 -39.62609749 206.8370512 -39.62213516 206.09407616 C-39.58544502 199.36752449 -39.54037645 192.64108644 -39.47021484 185.91479492 C-38.4940235 147.75544536 -38.4940235 147.75544536 -55.64160156 114.76757812 C-58.78769133 112.03663216 -62.02079571 109.82073298 -65.64160156 107.76757812 C-66.26421875 107.40792969 -66.88683594 107.04828125 -67.52832031 106.67773438 C-76.19174198 102.59972461 -87.03489584 103.8848706 -95.82910156 106.76757812 C-118.782202 116.01078393 -134.78191222 135.5482871 -144.50683594 157.7421875 C-157.99594065 190.09717292 -166.26624648 226.12935041 -170.64160156 260.76757812 C-170.74762695 261.60393799 -170.85365234 262.44029785 -170.96289062 263.30200195 C-171.85774564 271.53830441 -171.79293816 279.7896021 -171.77197266 288.0637207 C-171.76663443 290.56467819 -171.77193469 293.06545436 -171.77832031 295.56640625 C-171.78167599 303.90764284 -171.55469042 312.14870441 -170.88183594 320.46801758 C-170.46971745 326.12836454 -170.3780387 331.78163321 -170.32910156 337.45507812 C-170.2855957 339.15374023 -170.2855957 339.15374023 -170.24121094 340.88671875 C-170.15398189 352.54186111 -172.93876052 361.03062864 -181.11035156 369.42773438 C-196.8356141 383.96389527 -212.8959932 389.67641314 -233.96484375 388.94238281 C-251.4967647 387.79746714 -266.84367822 379.50070271 -278.64160156 366.76757812 C-280.96506617 363.9007226 -282.88582166 361.00991835 -284.64160156 357.76757812 C-285.02832031 357.0740625 -285.41503906 356.38054687 -285.81347656 355.66601562 C-293.28864685 340.76984296 -291.38605287 322.45673041 -286.41699219 307.08056641 C-280.14165726 288.36125812 -272.56783041 270.18630116 -264.97094727 251.9765625 C-240.55648964 193.45394385 -225.96063443 135.6544246 -216.87426758 73.0300293 C-215.34360519 62.61286568 -213.77419274 52.2518622 -211.18457031 42.03710938 C-210.9147509 40.93758186 -210.9147509 40.93758186 -210.63948059 39.81584167 C-208.38538553 31.53704734 -203.89153656 24.49771864 -196.64160156 19.76757812 C-189.49616603 15.91891874 -180.54213539 15.63254668 -172.64160156 16.76757812 C-168.28164798 19.1754056 -166.6571153 22.04179251 -165.16455078 26.62060547 C-164.31421218 30.11167816 -164.15812788 33.51098787 -164.20410156 37.08007812 C-164.20893555 38.30839355 -164.20893555 38.30839355 -164.21386719 39.56152344 C-164.43580589 50.30259137 -165.87989284 60.98350656 -167.21801758 71.63208008 C-167.30994888 72.37236954 -167.40188019 73.112659 -167.49659729 73.87538147 C-167.75062725 75.90553954 -168.01226613 77.93474139 -168.27441406 79.96386719 C-168.660383 83.96213579 -168.77299215 87.75469061 -168.64160156 91.76757812 C-168.31160156 92.09757812 -167.98160156 92.42757813 -167.64160156 92.76757812 C-167.35140137 92.29151123 -167.06120117 91.81544434 -166.76220703 91.32495117 C-141.97472284 50.8702706 -104.6117846 0.93389899 -55.89160156 -11.10742188 C-36.74828195 -14.65169502 -15.93402087 -11.96236427 0 0 Z " fill="#000000" transform="translate(2051.6416015625,1079.232421875)"/>
<path d="M0 0 C1.5159375 1.0828125 1.5159375 1.0828125 3.0625 2.1875 C15.282148 12.85437505 21.67216631 29.76283439 26 45 C26 45.66 26 46.32 26 47 C29.06884064 48.09565219 31.20982056 48.32628533 34.25146484 47.0703125 C36.93591201 45.60674154 39.56322076 44.06889738 42.1875 42.5 C55.5045952 34.89626074 69.5074203 28.27749908 85 27 C85.78761719 26.91878906 86.57523438 26.83757812 87.38671875 26.75390625 C105.61097816 25.75985574 127.00422946 35.70189009 140.51464844 47.30029297 C164.57123793 68.90851048 175.60989141 99.84847662 185.62109375 129.73828125 C185.94271484 130.69845154 186.26433594 131.65862183 186.59570312 132.64788818 C186.9236084 133.62695129 187.25151367 134.6060144 187.58935547 135.61474609 C195.21952194 158.38647731 203.58458094 180.63415997 213.02539062 202.71472168 C214.31499815 205.73861228 215.59109541 208.76812279 216.86749268 211.79760742 C232.28069499 248.48553287 232.28069499 248.48553287 249.6875 284.25 C250.07333252 284.98798828 250.45916504 285.72597656 250.85668945 286.48632812 C252.91911772 290.3171446 255.15094358 293.68146024 258 297 C257.67 297.66 257.34 298.32 257 299 C212.89197427 286.65212739 180.65898583 254.91785868 158 216 C155.10419577 210.77729349 152.46393978 205.43942819 150 200 C149.54262451 199.02095703 149.08524902 198.04191406 148.61401367 197.03320312 C144.03839257 186.88881417 141.22834391 176.56848392 138.47094727 165.81884766 C131.89349988 139.60409625 131.89349988 139.60409625 114.81640625 119.83984375 C110.34694742 117.77331977 106.49689552 117.60459364 101.6875 118.875 C96.18315646 121.6208739 91.58788679 125.97194463 87 130 C86.38125 130.53367187 85.7625 131.06734375 85.125 131.6171875 C70.54478382 145.14594578 60.93437289 164.76687411 51.52563477 181.96655273 C27.00633438 226.74380304 -8.62722332 279.19509845 -60.046875 295.00390625 C-83.65100512 301.27865075 -105.01425124 300.34969402 -126.33984375 288.078125 C-133.1666772 283.68505328 -139.14137267 278.59957238 -145 273 C-145.67546875 272.39929687 -146.3509375 271.79859375 -147.046875 271.1796875 C-166.95338405 252.78607314 -177.12761543 222.12997845 -178.22119141 195.6159668 C-178.36592241 190.66064061 -178.38650728 185.70713952 -178.375 180.75 C-178.37445618 179.86804962 -178.37391235 178.98609924 -178.37335205 178.0774231 C-178.33184635 163.39818528 -177.28079346 149.34910201 -174 135 C-173.78569336 134.03400879 -173.57138672 133.06801758 -173.35058594 132.07275391 C-165.95527828 99.45051251 -152.07932953 69.05490617 -131.2578125 42.84765625 C-129.89284384 41.12609543 -128.54783371 39.38806829 -127.2421875 37.62109375 C-107.88371922 11.48248561 -77.04543694 -5.19975994 -45.125 -10 C-28.22781562 -12.20479295 -13.90106808 -10.39843675 0 0 Z M-47.47265625 60.8125 C-61.51318621 78.53776595 -68.17798959 101.01381883 -74.11791992 122.49169922 C-74.82077121 125.02986938 -75.53749848 127.56383678 -76.25585938 130.09765625 C-83.00889915 151.62029933 -83.00889915 151.62029933 -80.5625 173.3125 C-79.24789592 175.8374016 -79.24789592 175.8374016 -78 177 C-72.74095673 176.89481913 -69.61359488 175.68542717 -65.87890625 172.16796875 C-59.1750418 164.43274054 -54.47562205 155.25976388 -50.01977539 146.11279297 C-35.62494444 116.59787903 -14.44798533 86.85799106 10.98046875 65.6953125 C13.72253856 63.39345892 16.35754806 60.97700209 19 58.5625 C19.94875 57.69753906 20.8975 56.83257813 21.875 55.94140625 C22.57625 55.30074219 23.2775 54.66007812 24 54 C22.92161338 47.72575057 17.77350622 43.37537217 12.9375 39.625 C-9.10296821 27.43240056 -33.08429229 44.44658839 -47.47265625 60.8125 Z " fill="#000000" transform="translate(2665,1166)"/>
<path d="M0 0 C25.61857449 22.06950445 34.25551206 60.09303237 36.828125 92.42578125 C41.60082989 164.46991613 19.53835986 238.44878784 -28.08984375 293.02734375 C-49.8117798 317.48733897 -78.85533772 338.88594971 -112.56787109 341.33251953 C-142.97574497 342.47430773 -171.53990244 334.7704563 -194.546875 314.11328125 C-195.43375 313.32308594 -196.320625 312.53289062 -197.234375 311.71875 C-198.94144733 310.18695741 -200.64233943 308.6482396 -202.3359375 307.1015625 C-204.09767583 305.51724305 -205.87776287 304.01937127 -207.734375 302.55078125 C-211.41283143 299.36278567 -214.46094756 295.87006249 -217.546875 292.11328125 C-218.32289062 291.17484375 -219.09890625 290.23640625 -219.8984375 289.26953125 C-243.55484283 259.9905648 -252.57780334 223.72617708 -249.08203125 186.5546875 C-242.99141897 132.39867004 -214.01231086 79.15676284 -176.546875 40.11328125 C-175.63808594 39.16324219 -174.72929688 38.21320313 -173.79296875 37.234375 C-149.54175118 12.43120938 -118.22322666 -6.42594321 -84.546875 -14.88671875 C-83.88478027 -15.06315918 -83.22268555 -15.23959961 -82.54052734 -15.42138672 C-53.92146143 -22.88883888 -23.46978637 -18.09422153 0 0 Z M-102.546875 62.11328125 C-103.35125 62.7990625 -104.155625 63.48484375 -104.984375 64.19140625 C-116.85536745 74.50433094 -126.10569149 85.93770831 -134.546875 99.11328125 C-134.9682373 99.76361328 -135.38959961 100.41394531 -135.82373047 101.08398438 C-160.02755412 138.84988806 -176.34513174 189.17218572 -167.546875 234.11328125 C-164.86725889 244.97345617 -160.25250087 255.84588317 -150.546875 262.11328125 C-142.4570819 266.37756202 -134.52509772 268.86669171 -125.45703125 266.20703125 C-113.7765903 261.87374043 -104.00821582 256.18231773 -94.546875 248.11328125 C-93.51433594 247.28183594 -93.51433594 247.28183594 -92.4609375 246.43359375 C-86.66944295 241.64931565 -82.14606394 236.02540106 -77.546875 230.11328125 C-76.43119141 228.72109375 -76.43119141 228.72109375 -75.29296875 227.30078125 C-69.09672671 219.36959143 -64.25262221 210.97241772 -59.546875 202.11328125 C-59.21333008 201.5006543 -58.87978516 200.88802734 -58.53613281 200.25683594 C-48.69574599 182.1328996 -40.95574227 162.48395439 -37.546875 142.11328125 C-37.34223633 140.91880371 -37.13759766 139.72432617 -36.92675781 138.49365234 C-31.52436466 106.83927581 -26.77601318 75.97179819 -41.421875 45.92578125 C-44.1703079 42.28814947 -46.16576827 41.33424542 -50.546875 40.11328125 C-68.68793616 37.80965444 -89.5985993 50.51378427 -102.546875 62.11328125 Z " fill="#000000" transform="translate(1736.546875,1126.88671875)"/>
<path d="M0 0 C-0.62276316 3.26333382 -1.77825702 5.41213369 -3.6796875 8.12109375 C-5.88447015 11.33503391 -7.99461124 14.57261926 -10.0078125 17.91015625 C-16.77082212 29.10209664 -23.88578461 39.74502546 -32 50 C-32.76828125 50.98097656 -33.5365625 51.96195313 -34.328125 52.97265625 C-58.6251794 83.34397425 -87.08187247 102.38519222 -122.89746094 117.09277344 C-147.69077819 127.30929336 -164.2118593 139.77046125 -175.125 164.9375 C-178.53950675 173.16712822 -180.9672572 181.50241024 -183.17578125 190.12109375 C-184.59595157 195.60967876 -186.17448537 201.04028723 -187.79296875 206.47265625 C-202.92387015 257.44273597 -209.41177196 306.11809089 -205.4375 359.39453125 C-204.3345984 374.83841995 -205.05577906 388.73790894 -215.1875 401.1875 C-224.90994606 411.62236668 -240.63364608 421.68996957 -255.1640625 422.43359375 C-256.98422189 422.45723863 -258.80480078 422.45784906 -260.625 422.4375 C-261.58921875 422.42920166 -262.5534375 422.42090332 -263.546875 422.41235352 C-281.41143913 421.99402497 -297.75854247 415.44109275 -310.44140625 402.75390625 C-323.43265431 388.77095986 -325.77756062 373.10672639 -325.16162109 354.76074219 C-324.7600737 347.9016819 -323.09486212 341.51588027 -321 335 C-320.72526855 334.14116211 -320.45053711 333.28232422 -320.16748047 332.39746094 C-314.01019635 313.60909743 -306.40810679 295.32458025 -299.09246826 276.9682312 C-292.37006462 260.09303685 -285.7340306 243.24199063 -280 226 C-279.49436523 224.50678223 -279.49436523 224.50678223 -278.97851562 222.98339844 C-265.72616404 183.51663329 -259.10552003 142.17046133 -253.0859375 101.09375 C-252.85238052 99.50348999 -252.85238052 99.50348999 -252.61410522 97.88110352 C-251.87080674 92.80309189 -251.14014226 87.7238146 -250.43310547 82.640625 C-245.64219273 48.75089221 -245.64219273 48.75089221 -235.125 39.0625 C-227.42281549 33.97905822 -217.92338261 31.67449769 -208.71484375 33.4375 C-205.71959778 34.55674265 -204.0656444 35.91466228 -202.125 38.4375 C-196.08862163 52.18702851 -199.95876868 71.61738714 -201.92602539 85.98681641 C-203.16865372 95.36443847 -203.30385932 104.55785305 -203 114 C-202.56171875 113.19820312 -202.1234375 112.39640625 -201.671875 111.5703125 C-190.32091156 91.22163414 -176.88027217 72.07286178 -161 55 C-159.82877852 53.64977087 -158.66192767 52.29573509 -157.5 50.9375 C-150.34415438 42.76408 -142.51497646 35.7277421 -134 29 C-133.03578125 28.20722656 -132.0715625 27.41445312 -131.078125 26.59765625 C-101.36138754 2.72621613 -35.45553934 -28.15586948 0 0 Z " fill="#000000" transform="translate(1631,1046)"/>
<path d="M0 0 C3.22294076 2.11678325 6.12350266 4.43628684 9 7 C9.59167969 7.49886719 10.18335937 7.99773437 10.79296875 8.51171875 C21.94871573 18.64634472 28.60919648 33.61329642 32.6875 47.8125 C32.89020508 48.51084961 33.09291016 49.20919922 33.30175781 49.92871094 C36.43395492 61.45875204 37.41303909 73.21482895 37.4375 85.125 C37.44056152 85.79753815 37.44362305 86.47007629 37.44677734 87.16299438 C37.46333772 101.59266837 35.98447402 115.84828403 34.5 130.1875 C26.70388314 206.34058997 39.11811756 285.84787137 57 360 C57.25072266 361.06105957 57.50144531 362.12211914 57.75976562 363.21533203 C62.60266606 383.34747379 71.47029451 402.48017997 84 419 C52.80312698 412.45941421 27.76713244 395.72363887 5 374 C4.113125 373.16597656 3.22625 372.33195312 2.3125 371.47265625 C-42.58200691 328.15219455 -60.94522225 244.74740668 -69 185 C-69.24556641 183.18653076 -69.24556641 183.18653076 -69.49609375 181.33642578 C-76.35105678 128.01925981 -79.64989693 52.24364057 -44.9921875 7.26953125 C-32.9816705 -6.41303812 -15.76399708 -8.77742895 0 0 Z " fill="#000000" transform="translate(2417,1046)"/>
<path d="M0 0 C10.88732561 8.83062112 18.49885319 22.59162135 20.69140625 36.390625 C22.19080822 59.32410098 15.09654388 79.36154054 0.09814453 96.80078125 C-14.98296972 113.84490066 -35.64967573 130.70991833 -59.30957031 132.54589844 C-72.4704402 133.26484438 -83.5940273 131.55172 -94.30859375 123.390625 C-107.63668921 111.05504729 -117.22636181 94.39994008 -118.546875 76.0859375 C-118.96508243 55.96795892 -112.04106933 37.2494991 -98.30859375 22.390625 C-97.43589844 21.42640625 -96.56320313 20.4621875 -95.6640625 19.46875 C-72.19932397 -5.66231343 -30.84566485 -21.50323844 0 0 Z " fill="#000000" transform="translate(2447.30859375,882.609375)"/>
<path d="M0 0 C1.16015625 -0.03867187 1.16015625 -0.03867187 2.34375 -0.078125 C4.5 0.25 4.5 0.25 6.34375 1.328125 C7.79902083 3.7470211 7.54941732 5.32942682 7.09677124 8.05670166 C5.78911093 12.86271273 3.32278794 17.22397598 1.06640625 21.640625 C0.51444077 22.73985291 -0.03752472 23.83908081 -0.60621643 24.97161865 C-2.37398777 28.48586907 -4.15569496 31.99284793 -5.9375 35.5 C-7.1017907 37.81205745 -8.26521063 40.12455361 -9.42773438 42.4375 C-14.79532653 53.09465511 -20.23814403 63.70616047 -25.82933044 74.24761963 C-31.06609596 84.15709415 -36.01577084 94.2119249 -41 104.25 C-47.3152507 116.96870909 -53.69839297 129.63620004 -60.35205078 142.18164062 C-62.07921753 145.44089752 -63.76486428 148.71802277 -65.41796875 152.015625 C-65.80533203 152.78003906 -66.19269531 153.54445313 -66.59179688 154.33203125 C-67.34353607 155.81942965 -68.0852256 157.31193724 -68.81835938 158.80859375 C-73.86840783 168.67104133 -80.66306726 173.71780269 -90.875 177.5 C-95.95538027 178.55111316 -101.78189893 179.67986311 -106.54760742 177.17285156 C-109.26005028 174.50144979 -109.53585206 171.74321216 -110.0703125 168.12109375 C-110.32363329 166.61889382 -110.5769707 165.11669669 -110.83032227 163.61450195 C-110.95867462 162.81485016 -111.08702698 162.01519836 -111.2192688 161.1913147 C-111.92261392 156.85088971 -112.69641077 152.5232067 -113.47265625 148.1953125 C-113.63477097 147.29015396 -113.79688568 146.38499542 -113.96391296 145.45240784 C-118.72581862 119.27793935 -125.83792864 93.52683135 -132.8125 67.875 C-133.10891388 66.77741364 -133.40532776 65.67982727 -133.71072388 64.54898071 C-140.13979203 40.24509214 -140.13979203 40.24509214 -153.875 19.5 C-155.69151754 17.40883657 -156.47858319 16.31919276 -157.3125 13.625 C-155.97452081 9.71398391 -152.99117406 8.09473397 -149.5 6.25 C-140.14152811 2.25829801 -130.73756435 -0.2475504 -120.5 1.25 C-117.44484082 2.98899899 -116.11174791 5.17495465 -114.5 8.25 C-114.0875 9.01828125 -113.675 9.7865625 -113.25 10.578125 C-110.21264796 17.07046499 -108.43973353 23.88545713 -106.65380859 30.80297852 C-106.39213079 31.81257157 -106.130453 32.82216463 -105.86084557 33.86235142 C-103.1790928 44.32392747 -100.83026308 54.84962733 -98.5390625 65.40234375 C-98.09963317 67.40980139 -97.65979503 69.41716957 -97.21957397 71.42445374 C-96.08126625 76.61990199 -94.94838376 81.81651745 -93.81677246 87.01342773 C-92.65336981 92.35148944 -91.48463944 97.68838441 -90.31640625 103.02539062 C-88.03916383 113.43248217 -85.76767226 123.84081926 -83.5 134.25 C-81.90352099 131.2293103 -80.30912981 128.20752325 -78.71508789 125.18554688 C-78.26696999 124.33772644 -77.81885208 123.48990601 -77.35715485 122.61639404 C-73.72729225 115.73108701 -70.28275607 108.77847465 -66.9375 101.75 C-65.75018701 99.26881702 -64.56052861 96.78876009 -63.37109375 94.30859375 C-63.06432709 93.66800522 -62.75756042 93.02741669 -62.4414978 92.36741638 C-59.99588263 87.266105 -57.51982148 82.18004517 -55.03515625 77.09765625 C-54.2735002 75.53776954 -53.51186278 73.97787373 -52.75024414 72.41796875 C-51.64124203 70.14691192 -50.53132381 67.87633318 -49.41793823 65.60742188 C-39.9671668 47.10766197 -39.9671668 47.10766197 -34.375 27.25 C-33.25978315 20.45932314 -31.94699161 15.31476471 -26.5625 10.52734375 C-18.84651189 5.5148742 -9.38562912 0.18771258 0 0 Z " fill="#000000" transform="translate(1754.5,866.75)"/>
<path d="M0 0 C1.37164307 -0.00845947 1.37164307 -0.00845947 2.77099609 -0.01708984 C11.06580957 0.07110515 19.65847171 0.77579914 26.8125 5.3125 C30.37126633 9.23941457 31.09753009 12.84145327 31.0390625 18.11328125 C30.56861796 22.67983777 29.0926278 27.0323722 25.8125 30.3125 C19.71595523 31.02884401 15.97235643 29.29420212 10.8125 26.4375 C3.18808878 22.30395905 -4.31828826 18.96038787 -13.1875 20.3125 C-17.46153857 22.53688719 -17.46153857 22.53688719 -20.1875 26.3125 C-20.28305417 27.76829587 -20.31734691 29.2285796 -20.3125 30.6875 C-20.31507812 31.45835937 -20.31765625 32.22921875 -20.3203125 33.0234375 C-20.18602661 35.33789438 -20.05825983 37.15851515 -19.1875 39.3125 C-17.50709372 40.45027077 -17.50709372 40.45027077 -15.1875 41.3125 C-10.60243577 43.58055669 -6.02513215 45.86253254 -1.45898438 48.16845703 C0.05065147 48.92879168 1.56236878 49.68500815 3.07617188 50.43701172 C24.76264385 61.23792805 24.76264385 61.23792805 28.8125 70 C32.49781851 82.20761756 31.42574998 94.72746127 25.5625 106.125 C18.91213962 117.10305758 8.81053021 122.65390783 -3.1875 126.3125 C-9.17153043 127.71600394 -15.13289199 127.53603333 -21.25 127.5625 C-22.41466797 127.583125 -23.57933594 127.60375 -24.77929688 127.625 C-36.6769352 127.67802569 -47.61351347 125.80518511 -57.1875 118.3125 C-61.17336359 113.93545085 -62.46553357 109.40252328 -62.421875 103.51953125 C-62.02852495 99.81548499 -60.64941109 96.72362587 -59.1875 93.3125 C-53.42909405 92.88352784 -50.50705245 93.89597872 -45.6875 97 C-34.82900344 103.6159572 -20.8517194 109.58187541 -7.9296875 106.83203125 C-4.26366581 105.44385149 -2.18887391 103.60956106 -0.1875 100.3125 C0.35896682 97.67306028 0.35896682 97.67306028 0.3125 94.875 C0.35890625 93.48474609 0.35890625 93.48474609 0.40625 92.06640625 C-1.12551667 84.96183056 -9.59149244 81.22606257 -15.25 77.5625 C-45.66471765 57.52705601 -45.66471765 57.52705601 -48.78515625 45.8203125 C-50.48911955 35.19949269 -49.49818431 25.60081326 -43.33984375 16.6171875 C-32.29166791 3.1829265 -16.60106545 0.09717968 0 0 Z " fill="#000000" transform="translate(1869.1875,917.6875)"/>
<path d="M0 0 C1.85574089 1.85574089 1.17392961 4.82911846 1.1875 7.3125 C1.20167969 8.46363281 1.21585938 9.61476563 1.23046875 10.80078125 C0.93176443 16.24327517 -0.10391295 21.62347767 -1 27 C9.56 27 20.12 27 31 27 C32.06199092 31.24796367 31.92158698 32.12762954 30.375 36 C29.89160156 37.2684375 29.89160156 37.2684375 29.3984375 38.5625 C27.64746192 41.61447978 25.93056582 43.04917278 23 45 C19.95385742 45.45410156 19.95385742 45.45410156 16.60546875 45.390625 C15.40341797 45.37773438 14.20136719 45.36484375 12.96289062 45.3515625 C11.71701172 45.31804688 10.47113281 45.28453125 9.1875 45.25 C7.92228516 45.23195313 6.65707031 45.21390625 5.35351562 45.1953125 C2.23490665 45.14823916 -0.88215973 45.08249094 -4 45 C-4.91851044 53.18848682 -5.83163742 61.37754904 -6.73806 69.56738186 C-7.15919706 73.37098224 -7.58212588 77.17436489 -8.00927734 80.97729492 C-8.42209345 84.65321028 -8.83003584 88.32963786 -9.23472595 92.00645638 C-9.38929363 93.40312729 -9.54556195 94.79961117 -9.70362854 96.19589043 C-11.75039692 108.7944754 -11.75039692 108.7944754 -9.6875 121 C-7.67654684 123.3833519 -6.11677081 123.86320679 -3.0546875 124.23828125 C2.43352323 124.42515581 6.08641405 123.32479581 10.98046875 120.890625 C13.41232982 119.81816015 15.37024249 119.66067645 18 120 C18.67117642 126.4432936 16.95657154 129.95561195 13 135 C7.86248676 141.15134624 2.4215847 144.9987949 -5 148 C-5.886875 148.36480469 -6.77375 148.72960938 -7.6875 149.10546875 C-12.1222524 150.30306108 -16.3000654 150.4069098 -20.875 150.4375 C-21.73480469 150.47037109 -22.59460937 150.50324219 -23.48046875 150.53710938 C-29.79423739 150.58980395 -34.18813479 149.18635983 -39 145 C-46.46461199 133.20109718 -42.79984582 117.37072083 -41.06640625 104.27734375 C-40.86630168 102.71758563 -40.6669295 101.15773341 -40.46824646 99.59779358 C-39.94879626 95.53655773 -39.41858585 91.4767977 -38.88623047 87.41723633 C-38.45288492 84.09786171 -38.02751792 80.77748681 -37.60249424 77.45703793 C-37.09323179 73.48011559 -36.580264 69.50367462 -36.06640625 65.52734375 C-35.969415 64.77570387 -35.87242374 64.02406399 -35.77249336 63.24964714 C-35.49688732 61.12051154 -35.21874721 58.99172376 -34.93969727 56.86303711 C-34.78203384 55.65505966 -34.62437042 54.44708221 -34.46192932 53.20249939 C-34.06358202 50.44080638 -33.58127502 47.72816757 -33 45 C-36.3 45 -39.6 45 -43 45 C-44.25 43 -44.25 43 -45 40 C-43.05807614 34.18055391 -39.27613521 29.51343552 -35.25 25 C-34.71632813 24.39260986 -34.18265625 23.78521973 -33.6328125 23.15942383 C-32.10070983 21.42817557 -30.55451343 19.71112486 -29 18 C-28.29359375 17.22011719 -27.5871875 16.44023438 -26.859375 15.63671875 C-19.54444367 7.96833486 -10.94743533 -0.39808856 0 0 Z " fill="#000000" transform="translate(2021,895)"/>
<path d="M0 0 C3.4165052 -0.08724706 6.83272313 -0.14047325 10.25 -0.1875 C11.70212891 -0.22520508 11.70212891 -0.22520508 13.18359375 -0.26367188 C14.58544922 -0.27817383 14.58544922 -0.27817383 16.015625 -0.29296875 C16.87446289 -0.3086792 17.73330078 -0.32438965 18.61816406 -0.34057617 C21.55084536 0.07876479 22.8671389 0.97059858 25 3 C29.85053802 15.36887195 26.78744603 31.06481147 25.13671875 43.94140625 C24.94129898 45.52243555 24.74672353 47.1035694 24.55293274 48.68479919 C24.04482924 52.81150218 23.52510319 56.93665707 23.00280762 61.06158447 C22.48207911 65.19183039 21.9731236 69.32352501 21.46289062 73.45507812 C20.41046457 81.95836562 19.33980227 90.45926423 18.25926971 98.95902252 C18.01172287 100.90771731 17.76514519 102.85653513 17.51861572 104.80535889 C17.1052565 108.06724697 16.68838153 111.32865681 16.26953125 114.58984375 C16.15284592 115.50963516 16.03616058 116.42942657 15.91593933 117.37709045 C15.80808609 118.20776535 15.70023285 119.03844025 15.58911133 119.89428711 C15.4984993 120.59863388 15.40788727 121.30298065 15.31452942 122.02867126 C14.99070494 124.05825728 14.5275106 126.01447131 14 128 C10.56265937 128.08703823 7.12560163 128.14040272 3.6875 128.1875 C2.71103516 128.21263672 1.73457031 128.23777344 0.72851562 128.26367188 C-0.67817383 128.27817383 -0.67817383 128.27817383 -2.11328125 128.29296875 C-2.97735596 128.3086792 -3.84143066 128.32438965 -4.73168945 128.34057617 C-7 128 -7 128 -8.74291992 126.73168945 C-17.22298406 115.04998525 -10.21865329 86.91313357 -8.59375 73.4375 C-8.34593603 71.29717535 -8.09933841 69.15670956 -7.85388184 67.01611328 C-7.21487777 61.47146477 -6.55974195 55.92884729 -5.90081787 50.38653564 C-5.22719555 44.69505785 -4.5694128 39.00175019 -3.91015625 33.30859375 C-2.62196137 22.20391952 -1.3166572 11.10133301 0 0 Z " fill="#000000" transform="translate(1929,917)"/>
<path d="M0 0 C3.4165052 -0.08724706 6.83272313 -0.14047325 10.25 -0.1875 C11.70212891 -0.22520508 11.70212891 -0.22520508 13.18359375 -0.26367188 C14.58544922 -0.27817383 14.58544922 -0.27817383 16.015625 -0.29296875 C16.87446289 -0.3086792 17.73330078 -0.32438965 18.61816406 -0.34057617 C21.55084536 0.07876479 22.8671389 0.97059858 25 3 C29.85053802 15.36887195 26.78744603 31.06481147 25.13671875 43.94140625 C24.94129898 45.52243555 24.74672353 47.1035694 24.55293274 48.68479919 C24.04482924 52.81150218 23.52510319 56.93665707 23.00280762 61.06158447 C22.48207911 65.19183039 21.9731236 69.32352501 21.46289062 73.45507812 C20.41046457 81.95836562 19.33980227 90.45926423 18.25926971 98.95902252 C18.01172287 100.90771731 17.76514519 102.85653513 17.51861572 104.80535889 C17.1052565 108.06724697 16.68838153 111.32865681 16.26953125 114.58984375 C16.15284592 115.50963516 16.03616058 116.42942657 15.91593933 117.37709045 C15.80808609 118.20776535 15.70023285 119.03844025 15.58911133 119.89428711 C15.4984993 120.59863388 15.40788727 121.30298065 15.31452942 122.02867126 C14.99070494 124.05825728 14.5275106 126.01447131 14 128 C10.56265937 128.08703823 7.12560163 128.14040272 3.6875 128.1875 C2.71103516 128.21263672 1.73457031 128.23777344 0.72851562 128.26367188 C-0.67817383 128.27817383 -0.67817383 128.27817383 -2.11328125 128.29296875 C-2.97735596 128.3086792 -3.84143066 128.32438965 -4.73168945 128.34057617 C-7 128 -7 128 -8.74291992 126.73168945 C-17.22298406 115.04998525 -10.21865329 86.91313357 -8.59375 73.4375 C-8.34593603 71.29717535 -8.09933841 69.15670956 -7.85388184 67.01611328 C-7.21487777 61.47146477 -6.55974195 55.92884729 -5.90081787 50.38653564 C-5.22719555 44.69505785 -4.5694128 39.00175019 -3.91015625 33.30859375 C-2.62196137 22.20391952 -1.3166572 11.10133301 0 0 Z " fill="#000000" transform="translate(1770,917)"/>
<path d="M0 0 C1.26402617 5.52082018 2.41963609 11.05685691 3.515625 16.61328125 C7.25840203 35.8219033 7.25840203 35.8219033 12.1875 54.75 C12.52539551 55.90689331 12.52539551 55.90689331 12.87011719 57.0871582 C13.94785695 60.52646197 15.12699562 63.38344464 17.1953125 66.34765625 C19 69 19 69 18.6875 71.6875 C15.83269226 75.59964394 11.97207897 76.57741165 7.375 77.5625 C3.70819038 76.69404509 1.94884582 74.05143972 0 71 C-1.07076464 68.25826483 -1.71076793 65.50155836 -2.3125 62.625 C-2.869375 60.10875 -3.42625 57.5925 -4 55 C-17.365 55.495 -17.365 55.495 -31 56 C-32.34207427 60.02622282 -33.12992298 62.60895636 -33.625 66.5625 C-34.42672481 70.27674072 -35.46616854 71.87149052 -38.625 74 C-42.72744958 76.18647038 -46.3891873 76.75299218 -51 77 C-51.93150253 74.52680569 -52.2307188 72.69494307 -51.3885498 70.15826416 C-50.35946779 67.9242936 -49.25324246 65.74780076 -48.109375 63.5703125 C-47.69334518 62.75084641 -47.27731537 61.93138031 -46.84867859 61.08708191 C-45.49492651 58.42647324 -44.12250953 55.77597316 -42.75 53.125 C-41.35811684 50.40010497 -39.97107004 47.67278373 -38.58421326 44.94532776 C-37.6676783 43.14374834 -36.74952116 41.34299326 -35.82972717 39.54307556 C-31.78874391 31.6276448 -27.93190492 23.63625097 -24.16113281 15.58837891 C-18.61883886 3.81390782 -18.61883886 3.81390782 -14.0625 1.75 C-13.05896484 1.27820312 -13.05896484 1.27820312 -12.03515625 0.796875 C-7.58720926 -0.94473956 -4.72734719 -0.96695738 0 0 Z M-13 16 C-14.85626755 19.94874591 -16.7075463 23.89977927 -18.55419922 27.85302734 C-19.18335916 29.1980719 -19.81388766 30.54247718 -20.44580078 31.88623047 C-21.35287658 33.81572451 -22.25503611 35.74744993 -23.15625 37.6796875 C-23.70087891 38.84226074 -24.24550781 40.00483398 -24.80664062 41.20263672 C-26.13079599 43.79972092 -26.13079599 43.79972092 -26 46 C-19.4 46 -12.8 46 -6 46 C-7.40488284 35.8145994 -9.53930019 25.97419585 -12 16 C-12.33 16 -12.66 16 -13 16 Z " fill="#000000" transform="translate(2476,1488)"/>
<path d="M0 0 C3.63 0 7.26 0 11 0 C15.54523354 7.57538923 14.00686924 15.11937222 12.7578125 23.44921875 C12.56516312 24.78917656 12.56516312 24.78917656 12.36862183 26.15620422 C11.95939432 29.00076996 11.54305126 31.8442186 11.125 34.6875 C9.00805318 49.10212061 7.24862869 63.48259803 6 78 C-1.6875 78.1640625 -1.6875 78.1640625 -4.5 76.6875 C-6.92822101 72.33693736 -6.2674864 67.86676651 -6 63 C-6 62.01 -6 61.02 -6 60 C-6.4125 60.56847656 -6.825 61.13695312 -7.25 61.72265625 C-18.69569554 77.02616435 -18.69569554 77.02616435 -27.40234375 78.37109375 C-31.84588007 78.48748838 -34.2525496 78.51387215 -38 75.9375 C-43.40800285 67.99449581 -42.96779466 58.24593526 -41.53515625 49 C-39.34091729 39.85950162 -35.15548917 31.51446234 -27.1953125 26.1875 C-19.83802114 22.20775521 -13.17499429 21.38000113 -5 23 C-4.01 23.33 -3.02 23.66 -2 24 C-1.93941406 22.85402344 -1.87882812 21.70804688 -1.81640625 20.52734375 C-1.73193011 18.99738703 -1.64728573 17.46743959 -1.5625 15.9375 C-1.52318359 15.18533203 -1.48386719 14.43316406 -1.44335938 13.65820312 C-1.18419281 9.05301259 -0.7200579 4.55633276 0 0 Z M-23.3125 34.0625 C-23.869375 35.031875 -24.42625 36.00125 -25 37 C-25.556875 37.969375 -26.11375 38.93875 -26.6875 39.9375 C-29.94305162 48.0942667 -29.79244788 57.786918 -27 66 C-21.36330004 65.51685429 -19.11322877 62.48996036 -15.59765625 58.34765625 C-11.00095356 52.5804404 -4 43.55321424 -4 36 C-13.72599023 30.8159708 -13.72599023 30.8159708 -23.3125 34.0625 Z " fill="#000000" transform="translate(2713,1487)"/>
<path d="M0 0 C3.3790348 -0.28528436 6.62889211 -0.42342418 10 0 C12.7911672 2.70907405 12.95077269 4.47819051 13.3125 8.3125 C12.96345333 12.43125074 12.1157708 16.02506651 11 20 C11.40089844 19.3709375 11.80179688 18.741875 12.21484375 18.09375 C17.11087224 10.721952 22.3287546 4.01346784 30.625 0.4375 C35.50531473 -0.19513339 39.28107038 -0.30081161 43.3125 2.75 C48.88282388 10.17709851 47.7289842 20.16829115 47 29 C45.36845487 37.99792255 41.31231741 46.31408259 33.65234375 51.62890625 C27.96170684 54.87673317 23.60745857 56.13876554 17 56.125 C15.7625 56.12757812 14.525 56.13015625 13.25 56.1328125 C10 56 10 56 7 55 C6.67 62.59 6.34 70.18 6 78 C2.37 78 -1.26 78 -5 78 C-10.93691201 66.12617599 -5.95691958 47.70055883 -4.49145508 35.07177734 C-4.05954493 31.34953293 -3.63909778 27.62612943 -3.22070312 23.90234375 C-2.95117356 21.52596754 -2.68101416 19.14966267 -2.41015625 16.7734375 C-2.22103416 15.11095474 -2.22103416 15.11095474 -2.02809143 13.41488647 C-1.90804245 12.3825589 -1.78799347 11.35023132 -1.66430664 10.28662109 C-1.5599379 9.38366302 -1.45556915 8.48070496 -1.34803772 7.55038452 C-1.00078675 5.00576524 -0.53087298 2.51215449 0 0 Z M22 19 C16.74645872 24.81188866 9 35.00378789 9 43 C16.71586864 46.72889614 16.71586864 46.72889614 25 47 C30.35432014 42.76635152 32.94202809 37.65010913 34 31 C34.14026782 28.66939625 34.21981087 26.33462577 34.25 24 C34.27578125 22.80375 34.3015625 21.6075 34.328125 20.375 C33.9764853 16.75813455 33.16271701 14.88362268 31 12 C27.92135875 12 24.09227422 16.98493147 22 19 Z " fill="#000000" transform="translate(2200,1509)"/>
<path d="M0 0 C1.6026782 -0.10824843 3.20745748 -0.18570645 4.8125 -0.25 C5.70582031 -0.29640625 6.59914063 -0.3428125 7.51953125 -0.390625 C10 0 10 0 11.79296875 1.7109375 C16.88360981 11.3650335 10.92786556 26.05260321 8.45898438 35.83032227 C7.89651766 38.11955849 7.89651766 38.11955849 8 41 C8.40089844 40.443125 8.80179688 39.88625 9.21484375 39.3125 C21.12705664 23.3215022 21.12705664 23.3215022 30 22 C34.20393164 21.88527282 37.16976877 22.23531334 40.375 25.1875 C45.56763355 34.17475037 45.24223156 45.05291025 42.8125 54.9375 C39.61169164 64.94002613 33.7022942 71.78597963 24.5625 76.9375 C16.76504237 79.43330652 5.7580735 79.3925824 -1.9375 76.625 C-5 75 -5 75 -7 73 C-7.7982594 64.40472931 -6.72131741 55.66716282 -5.72265625 47.12890625 C-5.59185165 45.96294418 -5.46104706 44.79698212 -5.32627869 43.59568787 C-4.91174261 39.91716008 -4.48710098 36.23987801 -4.0625 32.5625 C-3.78127604 30.07103401 -3.50067186 27.57949798 -3.22070312 25.08789062 C-2.95106748 22.70566723 -2.68090391 20.32350352 -2.41015625 17.94140625 C-2.28407486 16.83197159 -2.15799347 15.72253693 -2.02809143 14.57948303 C-1.46369269 9.69609996 -0.88422423 4.8383366 0 0 Z M26 34 C21.37277772 37.21974955 18.37809093 40.88420479 15.4375 45.6875 C15.054729 46.29891846 14.67195801 46.91033691 14.27758789 47.5402832 C8.42622326 56.2126944 8.42622326 56.2126944 6 66 C11.16784565 68.17593501 15.30355192 69.84391823 21 69 C26.91280376 65.24764376 29.01705158 61.02115263 30.6875 54.1875 C31.32692752 47.66533928 31.94583604 41.04671607 29 35 C28.01 34.67 27.02 34.34 26 34 Z M6 43 C7 45 7 45 7 45 Z " fill="#000000" transform="translate(2508,1487)"/>
<path d="M0 0 C3.3792664 -0.28530392 6.62675098 -0.40196526 10 0 C12.125 1.8125 12.125 1.8125 13 5 C13.60325038 12.98924416 12.3622672 20.25900824 10.5 28 C10.02869578 30.02023916 9.55982896 32.04104896 9.09375 34.0625 C8.77954102 35.37927734 8.77954102 35.37927734 8.45898438 36.72265625 C7.90121449 39.10295494 7.90121449 39.10295494 8 42 C8.49306641 41.1646875 8.49306641 41.1646875 8.99609375 40.3125 C14.36413501 31.70035793 20.87072951 24.45062996 31 22 C34.89162353 22.06486039 37.06019561 22.29164391 40.17797852 24.64160156 C44.36818493 30.06534456 42.30936303 39.69729688 41.53173828 46.26757812 C40.96159531 50.60926089 40.26728801 54.92852397 39.5625 59.25 C39.32909429 60.74594058 39.09666825 62.24203435 38.86523438 63.73828125 C37.18547344 74.44357968 37.18547344 74.44357968 36 78 C34.54207116 78.05399736 33.08357288 78.09279177 31.625 78.125 C30.81289062 78.14820313 30.00078125 78.17140625 29.1640625 78.1953125 C27 78 27 78 25 76 C23.91974791 65.91297078 25.58607125 56.02381958 27.34375 46.1171875 C27.87703051 43.0383258 28.15109321 40.13518419 28 37 C22.83651912 37.5737201 20.19772429 41.57844652 17.03515625 45.33203125 C11.07706116 53.1427394 8.3173387 61.43729846 6.8359375 71.06640625 C6 74 6 74 4.20703125 75.85546875 C1.8010098 77.10319315 0.00427136 77.51864114 -2.6875 77.75 C-3.86892578 77.86601563 -3.86892578 77.86601563 -5.07421875 77.984375 C-5.70972656 77.98953125 -6.34523438 77.9946875 -7 78 C-7.33 77.67 -7.66 77.34 -8 77 C-7.98749543 74.50573 -7.89812026 72.05811132 -7.75 69.5703125 C-7.70407715 68.77867706 -7.6581543 67.98704163 -7.61083984 67.17141724 C-6.86902907 55.69400164 -5.38951712 44.28795872 -4 32.875 C-3.723444 30.56776993 -3.44739938 28.26047849 -3.171875 25.953125 C-2.13606538 17.29938233 -1.08718091 8.64744725 0 0 Z M6 44 C7 46 7 46 7 46 Z " fill="#000000" transform="translate(2067,1487)"/>
<path d="M0 0 C2.03979492 0.07617188 2.03979492 0.07617188 3.03979492 1.07617188 C3.31443848 4.64653811 3.18342692 7.55688696 2.22729492 11.01367188 C-0.39690462 13.48791715 -1.19245789 13.43004044 -4.71020508 13.51367188 C-11.840332 13.19784075 -18.90966005 12.1418413 -25.96020508 11.07617188 C-26.05108398 12.82994141 -26.05108398 12.82994141 -26.14379883 14.61914062 C-26.22824541 16.16732802 -26.31289133 17.71550455 -26.39770508 19.26367188 C-26.43702148 20.03259766 -26.47633789 20.80152344 -26.5168457 21.59375 C-26.73527542 25.50868263 -27.04712616 29.24737876 -27.96020508 33.07617188 C-26.97020508 32.58117188 -26.97020508 32.58117188 -25.96020508 32.07617188 C-24.58674158 31.92612215 -23.20735248 31.82779182 -21.82739258 31.75976562 C-21.02172852 31.71787109 -20.21606445 31.67597656 -19.38598633 31.6328125 C-18.54422852 31.59349609 -17.7024707 31.55417969 -16.83520508 31.51367188 C-15.98571289 31.47048828 -15.1362207 31.42730469 -14.26098633 31.3828125 C-12.16092285 31.27662952 -10.0605856 31.17588691 -7.96020508 31.07617188 C-7.37036133 32.94726562 -7.37036133 32.94726562 -6.96020508 35.07617188 C-10.01045772 39.45262132 -14.01086506 40.66207473 -18.96020508 42.07617188 C-22.26020508 42.07617188 -25.56020508 42.07617188 -28.96020508 42.07617188 C-29.29020508 49.99617188 -29.62020508 57.91617187 -29.96020508 66.07617188 C-28.11813477 65.71523437 -26.27606445 65.35429688 -24.37817383 64.98242188 C-21.96804607 64.51352542 -19.55788825 64.04478342 -17.14770508 63.57617188 C-15.93276367 63.33769531 -14.71782227 63.09921875 -13.46606445 62.85351562 C-12.30268555 62.62792969 -11.13930664 62.40234375 -9.94067383 62.16992188 C-8.86712646 61.96044922 -7.7935791 61.75097656 -6.6875 61.53515625 C-3.96020508 61.07617188 -3.96020508 61.07617188 -0.96020508 61.07617188 C-0.64470677 66.33447709 -1.22675271 69.5554622 -3.96020508 74.07617188 C-6.43396418 76.54993098 -7.27792986 76.36598096 -10.69458008 76.49023438 C-11.65533447 76.52914795 -12.61608887 76.56806152 -13.60595703 76.6081543 C-14.63035889 76.6388501 -15.65476074 76.6695459 -16.71020508 76.70117188 C-17.74685303 76.73766846 -18.78350098 76.77416504 -19.8515625 76.81176758 C-22.88756105 76.91269178 -25.92355996 76.99738491 -28.96020508 77.07617188 C-30.1592749 77.11121826 -30.1592749 77.11121826 -31.38256836 77.14697266 C-39.7872204 77.37474619 -39.7872204 77.37474619 -42.96020508 77.07617188 C-45.5640976 74.47227935 -45.2309944 72.63405589 -45.26039124 69.08363342 C-45.25285324 68.24456955 -45.24531525 67.40550568 -45.23754883 66.54101562 C-45.23295151 65.65913071 -45.22835419 64.77724579 -45.22361755 63.86863708 C-45.05540984 52.39846384 -43.76444354 41.03219671 -42.52270508 29.63867188 C-42.28939081 27.41155164 -42.05696451 25.1843382 -41.82543945 22.95703125 C-41.60161853 20.83129704 -41.37703821 18.70564262 -41.15161133 16.58007812 C-41.04740372 15.59681046 -40.94319611 14.61354279 -40.83583069 13.60047913 C-40.73580246 12.68439377 -40.63577423 11.76830841 -40.53271484 10.82446289 C-40.44611099 10.02541031 -40.35950714 9.22635773 -40.27027893 8.40309143 C-39.94111312 5.93289814 -39.4738738 3.51410177 -38.96020508 1.07617188 C-33.92482968 0.9328594 -28.88942931 0.79047039 -23.85400391 0.64892578 C-22.14208272 0.60067528 -20.43016854 0.55217533 -18.71826172 0.50341797 C-16.25335475 0.43325797 -13.78842371 0.364004 -11.32348633 0.29492188 C-10.5618367 0.2730481 -9.80018707 0.25117432 -9.01545715 0.2286377 C-6.01048409 0.14512246 -3.00513926 0.07732812 0 0 Z " fill="#000000" transform="translate(2016.960205078125,1486.923828125)"/>
<path d="M0 0 C5.61733457 0.86112437 10.39506038 0.90079387 16 0 C17.13011184 3.39033551 16.60148311 4.65812327 15.51245117 7.93994141 C10.51971189 23.08011417 9.60148426 39.22422541 8 55 C6.37581255 55.08090971 4.75048255 55.13914995 3.125 55.1875 C2.22007812 55.22230469 1.31515625 55.25710938 0.3828125 55.29296875 C-0.79667969 55.14794922 -0.79667969 55.14794922 -2 55 C-5.56334257 49.65498614 -4.01378848 43.08273091 -3 37 C-3.4846875 37.72445313 -3.969375 38.44890625 -4.46875 39.1953125 C-9.11305382 45.89382763 -13.62566419 51.3128321 -21 55 C-26.00326774 55.61987388 -29.76448874 55.84941399 -34 52.9375 C-38.97450656 45.63119348 -38.72593711 37.60235471 -38 29 C-36.40333445 20.83523299 -33.75046551 14.06916601 -28 8 C-27.21302734 7.15308594 -27.21302734 7.15308594 -26.41015625 6.2890625 C-18.74745152 -1.10319383 -10.07069607 -1.54467819 0 0 Z M-20.95703125 13.1015625 C-25.19778331 20.82068422 -26.20330447 31.37251414 -24.0625 39.875 C-23.711875 40.90625 -23.36125 41.9375 -23 43 C-17.84664928 42.3240068 -16.12621458 40.55094678 -12.90625 36.66015625 C-9.13084925 31.39161544 -6.05720468 25.70678207 -3 20 C-2.57332031 19.28328125 -2.14664063 18.5665625 -1.70703125 17.828125 C-0.84839975 15.99234754 -0.84839975 15.99234754 -1.1484375 13.859375 C-1.84747896 11.89655917 -1.84747896 11.89655917 -3.6015625 10.953125 C-13.16495988 7.62411977 -13.16495988 7.62411977 -20.95703125 13.1015625 Z " fill="#000000" transform="translate(2768,1510)"/>
<path d="M0 0 C5.61733457 0.86112437 10.39506038 0.90079387 16 0 C17.13011184 3.39033551 16.60148311 4.65812327 15.51245117 7.93994141 C10.51971189 23.08011417 9.60148426 39.22422541 8 55 C6.37581255 55.08090971 4.75048255 55.13914995 3.125 55.1875 C2.22007812 55.22230469 1.31515625 55.25710938 0.3828125 55.29296875 C-0.79667969 55.14794922 -0.79667969 55.14794922 -2 55 C-5.56334257 49.65498614 -4.01378848 43.08273091 -3 37 C-3.4846875 37.72445313 -3.969375 38.44890625 -4.46875 39.1953125 C-9.11305382 45.89382763 -13.62566419 51.3128321 -21 55 C-26.00326774 55.61987388 -29.76448874 55.84941399 -34 52.9375 C-38.97450656 45.63119348 -38.72593711 37.60235471 -38 29 C-36.40333445 20.83523299 -33.75046551 14.06916601 -28 8 C-27.21302734 7.15308594 -27.21302734 7.15308594 -26.41015625 6.2890625 C-18.74745152 -1.10319383 -10.07069607 -1.54467819 0 0 Z M-20.95703125 13.1015625 C-25.19778331 20.82068422 -26.20330447 31.37251414 -24.0625 39.875 C-23.711875 40.90625 -23.36125 41.9375 -23 43 C-17.84664928 42.3240068 -16.12621458 40.55094678 -12.90625 36.66015625 C-9.13084925 31.39161544 -6.05720468 25.70678207 -3 20 C-2.57332031 19.28328125 -2.14664063 18.5665625 -1.70703125 17.828125 C-0.84839975 15.99234754 -0.84839975 15.99234754 -1.1484375 13.859375 C-1.84747896 11.89655917 -1.84747896 11.89655917 -3.6015625 10.953125 C-13.16495988 7.62411977 -13.16495988 7.62411977 -20.95703125 13.1015625 Z " fill="#000000" transform="translate(2315,1510)"/>
<path d="M0 0 C1.43655854 -0.08131463 2.8744483 -0.13933559 4.3125 -0.1875 C5.51326172 -0.23970703 5.51326172 -0.23970703 6.73828125 -0.29296875 C9.51627459 0.06687495 10.29427215 0.83241353 12 3 C13.48195419 5.96390838 13.05746597 8.72443978 13 12 C13 12.99 13 13.98 13 15 C13.50789063 14.39671875 14.01578125 13.7934375 14.5390625 13.171875 C19.85175234 7.00358342 24.77076564 1.81043156 33 0 C36.62925875 0 39.89738056 0.21749588 42.9375 2.375 C47.16280042 8.83722417 44.86346783 18.21973795 43.72265625 25.375 C43.59185165 26.22553955 43.46104706 27.0760791 43.32627869 27.95239258 C43.05124482 29.7309729 42.77293362 31.50904932 42.49145508 33.28662109 C42.05945396 36.01926791 41.63934293 38.75355885 41.22070312 41.48828125 C40.95121344 43.221462 40.68105563 44.95453903 40.41015625 46.6875 C40.22103416 47.91702393 40.22103416 47.91702393 40.02809143 49.17138672 C39.11570181 54.88429819 39.11570181 54.88429819 38 56 C30.62508835 56.47580075 30.62508835 56.47580075 28.39404297 54.77758789 C25.08063064 50.55255197 26.83625475 43.49086741 27.38671875 38.47900391 C27.88184326 34.749231 28.42933917 31.03143494 29 27.3125 C29.28617188 25.38374023 29.28617188 25.38374023 29.578125 23.41601562 C30.04501029 20.27621203 30.51909977 17.13768214 31 14 C21.09639161 17.84011278 17.05201693 25.58829006 12.72265625 34.83203125 C10.65796839 39.55553813 9.51560059 44.34636336 8.66796875 49.42578125 C7.93776306 52.23984878 7.30353892 53.27652899 5 55 C1.52674819 56.1577506 -1.36067448 56.06866652 -5 56 C-6.32919248 50.4010519 -5.70839765 45.38031515 -5.0390625 39.74609375 C-4.929039 38.76761978 -4.8190155 37.78914581 -4.70565796 36.78102112 C-4.47232268 34.71889203 -4.23506872 32.65720304 -3.99414062 30.59594727 C-3.62595844 27.44570063 -3.26892866 24.2943499 -2.9140625 21.14257812 C-2.68554234 19.13534296 -2.4563968 17.12817887 -2.2265625 15.12109375 C-2.11921783 14.18140244 -2.01187317 13.24171112 -1.90127563 12.27354431 C-1.41715825 8.14206775 -0.92092051 4.0623535 0 0 Z " fill="#000000" transform="translate(2795,1509)"/>
<path d="M0 0 C1.43655854 -0.08131463 2.8744483 -0.13933559 4.3125 -0.1875 C5.51326172 -0.23970703 5.51326172 -0.23970703 6.73828125 -0.29296875 C9.51627459 0.06687495 10.29427215 0.83241353 12 3 C13.48195419 5.96390838 13.05746597 8.72443978 13 12 C13 12.99 13 13.98 13 15 C13.50789063 14.39671875 14.01578125 13.7934375 14.5390625 13.171875 C19.85175234 7.00358342 24.77076564 1.81043156 33 0 C36.62925875 0 39.89738056 0.21749588 42.9375 2.375 C47.16280042 8.83722417 44.86346783 18.21973795 43.72265625 25.375 C43.59185165 26.22553955 43.46104706 27.0760791 43.32627869 27.95239258 C43.05124482 29.7309729 42.77293362 31.50904932 42.49145508 33.28662109 C42.05945396 36.01926791 41.63934293 38.75355885 41.22070312 41.48828125 C40.95121344 43.221462 40.68105563 44.95453903 40.41015625 46.6875 C40.22103416 47.91702393 40.22103416 47.91702393 40.02809143 49.17138672 C39.11570181 54.88429819 39.11570181 54.88429819 38 56 C30.62508835 56.47580075 30.62508835 56.47580075 28.39404297 54.77758789 C25.08063064 50.55255197 26.83625475 43.49086741 27.38671875 38.47900391 C27.88184326 34.749231 28.42933917 31.03143494 29 27.3125 C29.28617188 25.38374023 29.28617188 25.38374023 29.578125 23.41601562 C30.04501029 20.27621203 30.51909977 17.13768214 31 14 C21.09639161 17.84011278 17.05201693 25.58829006 12.72265625 34.83203125 C10.65796839 39.55553813 9.51560059 44.34636336 8.66796875 49.42578125 C7.93776306 52.23984878 7.30353892 53.27652899 5 55 C1.52674819 56.1577506 -1.36067448 56.06866652 -5 56 C-6.32919248 50.4010519 -5.70839765 45.38031515 -5.0390625 39.74609375 C-4.929039 38.76761978 -4.8190155 37.78914581 -4.70565796 36.78102112 C-4.47232268 34.71889203 -4.23506872 32.65720304 -3.99414062 30.59594727 C-3.62595844 27.44570063 -3.26892866 24.2943499 -2.9140625 21.14257812 C-2.68554234 19.13534296 -2.4563968 17.12817887 -2.2265625 15.12109375 C-2.11921783 14.18140244 -2.01187317 13.24171112 -1.90127563 12.27354431 C-1.41715825 8.14206775 -0.92092051 4.0623535 0 0 Z " fill="#000000" transform="translate(2620,1509)"/>
<path d="M0 0 C1.62463842 -0.05395478 3.24978541 -0.09277195 4.875 -0.125 C6.23238281 -0.15980469 6.23238281 -0.15980469 7.6171875 -0.1953125 C10 0 10 0 12 2 C12.77053276 10.65716213 11.82872696 19.0692356 10.4453125 27.61328125 C9.77000252 32.74919135 9.82960136 37.83124127 10 43 C17.33339735 40.66835572 20.21219142 34.26365056 23.74609375 27.8125 C27.05485505 21.33780164 29.15746698 16.67753124 29 9.375 C28.88946015 4.22107969 28.88946015 4.22107969 30 2 C34.68927187 0.25301636 38.14603478 -0.38684721 43 1 C46.08482989 7.16965978 43.72180531 16.75390982 42.90625 23.3828125 C42.79526978 24.32309296 42.68428955 25.26337341 42.56994629 26.23214722 C42.21874171 29.19711009 41.85951711 32.16103481 41.5 35.125 C41.25858066 37.15097812 41.01769037 39.17701935 40.77734375 41.203125 C40.19100308 46.13616669 39.59747426 51.06829491 39 56 C37.56344146 56.08131463 36.1255517 56.13933559 34.6875 56.1875 C33.48673828 56.23970703 33.48673828 56.23970703 32.26171875 56.29296875 C30 56 30 56 28.2253418 54.6706543 C26.35103958 52.11519503 26.71215472 49.92320361 26.8125 46.8125 C26.83957031 45.72582031 26.86664062 44.63914062 26.89453125 43.51953125 C26.92933594 42.68808594 26.96414062 41.85664062 27 41 C26.43152344 41.67546875 25.86304687 42.3509375 25.27734375 43.046875 C19.32456 49.9238806 14.12289587 55.4330652 4.625 56.3125 C0.39336784 55.94770412 -1.07633558 55.00965455 -4 52 C-6.2949906 45.11502819 -4.8390393 37.43723038 -3.90625 30.37109375 C-3.79526978 29.49598648 -3.68428955 28.62087921 -3.56994629 27.71925354 C-3.21854995 24.95796687 -2.85941426 22.19775326 -2.5 19.4375 C-2.25859954 17.55149814 -2.01770933 15.6654309 -1.77734375 13.77929688 C-1.1907874 9.18542153 -0.59729389 4.59249107 0 0 Z " fill="#000000" transform="translate(2563,1509)"/>
<path d="M0 0 C6.06936999 6.56148107 6.9778765 14.36044146 6.6953125 23.03515625 C5.65654792 32.43703562 1.70214685 40.73083168 -5.41796875 47.03125 C-12.64219118 52.51719375 -19.78583191 53.25377028 -28.6875 52.5 C-34.39805766 51.26891963 -37.44365189 48.13406873 -40.6875 43.5 C-44.54390678 35.81424895 -43.77547362 24.69729011 -41.25 16.625 C-37.80131288 8.54556693 -31.62522861 1.53707829 -23.45703125 -1.89453125 C-15.43724921 -4.63860678 -7.45683978 -4.16195709 0 0 Z M-22.6875 8.5 C-27.73423248 14.91694749 -28.88894894 20.30528948 -29 28.375 C-29.02900391 29.06980469 -29.05800781 29.76460937 -29.08789062 30.48046875 C-29.15114512 35.64787437 -28.04123861 38.59128329 -24.6875 42.5 C-20.91349814 43.66650967 -18.73471497 43.86530755 -15 42.5625 C-10.02964929 38.1294845 -7.89759756 31.81711717 -7.484375 25.29296875 C-7.15865282 15.89621381 -7.15865282 15.89621381 -10.6875 7.5 C-15.49925538 4.71987467 -18.26648484 5.30181882 -22.6875 8.5 Z " fill="#000000" transform="translate(2182.6875,1512.5)"/>
<path d="M0 0 C2.79396663 2.34332685 3.31494351 4.76607809 3.9375 8.25 C4.34194932 13.37302474 2.97695077 16.87038841 0 21 C-7.08185656 28.42731298 -17.05725657 31.5549592 -27 33 C-26.39816251 35.02045442 -25.72693904 37.02111039 -25 39 C-21.01136361 40.9943182 -16.33363507 40.53053522 -12 40 C-9.19403048 38.86296565 -6.68879525 37.55059326 -4.09375 35.99609375 C-2 35 -2 35 1 36 C0.89633782 40.25014924 -0.16344591 42.59191791 -3 45.625 C-10.24773298 52.22849005 -17.07988525 53.69065751 -26.81640625 53.38671875 C-32.29063564 52.72175101 -34.74388883 50.39190697 -38.3125 46.4375 C-42.74526148 40.03462231 -41.61147315 30.52095314 -41 23 C-39.1842202 14.09749105 -34.70072739 6.20730217 -27.0625 1.125 C-18.24440004 -3.84459333 -9.01414197 -4.77707985 0 0 Z M-20 8 C-24.76496479 12.53806171 -26.8577074 17.5192379 -28 24 C-27.67 24.66 -27.34 25.32 -27 26 C-20.46828161 24.12881377 -15.12831407 22.38751019 -10.953125 16.80859375 C-9.52364736 14.09610133 -9.51402896 11.98525069 -10 9 C-10.79936642 6.86298195 -10.79936642 6.86298195 -12.75 6.25 C-15.8438005 5.90624439 -17.27724057 6.47259837 -20 8 Z " fill="#000000" transform="translate(2930,1512)"/>
<path d="M0 0 C1.65902344 0.10054687 1.65902344 0.10054687 3.3515625 0.203125 C6.604356 0.79148558 8.12836711 1.33554634 10.375 3.75 C10.80078125 5.9765625 10.80078125 5.9765625 10.6875 8.375 C10.65076172 9.56996094 10.65076172 9.56996094 10.61328125 10.7890625 C10.375 12.75 10.375 12.75 9.375 13.75 C5.60831834 14.33854401 3.1990704 13.29413403 -0.125 11.6875 C-3.12771358 10.25882993 -4.30356338 9.72376028 -7.6875 10 C-8.326875 10.2475 -8.96625 10.495 -9.625 10.75 C-9.955 12.4 -10.285 14.05 -10.625 15.75 C-6.23272855 19.51133743 -1.69970563 21.71996303 3.53515625 24.08984375 C6.77381513 25.98314502 8.41665389 27.552136 10.375 30.75 C11.35997316 36.53671734 11.20808525 41.99126447 8.6875 47.3125 C3.57220885 52.70429337 -0.7111294 55.42489964 -8.24609375 56.05078125 C-21.18122195 56.09050017 -21.18122195 56.09050017 -26.625 52.75 C-27.264375 52.358125 -27.90375 51.96625 -28.5625 51.5625 C-30.40471799 48.41989284 -29.8558491 45.32816098 -29.625 41.75 C-28.625 40.75 -28.625 40.75 -26.5625 40.4375 C-23.00856639 40.81557804 -20.60387461 42.08831514 -17.4921875 43.77734375 C-14.19807152 45.4933163 -11.58704082 45.8653919 -7.9375 45.8125 C-7.12925781 45.80347656 -6.32101563 45.79445313 -5.48828125 45.78515625 C-4.87339844 45.77355469 -4.25851563 45.76195312 -3.625 45.75 C-2.78546733 42.55095012 -2.78546733 42.55095012 -3.625 38.75 C-6.6431184 35.93793788 -10.1174632 33.90042441 -13.625 31.75 C-19.1596001 28.13726438 -22.91575286 25.47303874 -24.625 18.75 C-24.87939734 14.05595878 -24.34288087 10.16421841 -21.4375 6.375 C-15.04691229 0.41045147 -8.50127164 -0.59727904 0 0 Z " fill="#000000" transform="translate(2385.625,1509.25)"/>
<path d="M0 0 C3.56518584 3.22187165 5.7589136 6.55356586 6.23828125 11.41796875 C6.43217042 18.65309612 5.62805503 24.1035683 0.57421875 29.53125 C-4.83711478 34.34132425 -9.52164253 35.4302562 -16.57421875 35.2421875 C-22.72298812 34.6283007 -25.98827699 31.28934432 -29.80078125 26.81640625 C-32.87350482 22.16228098 -32.65727909 16.22006451 -31.57421875 10.9140625 C-29.85726719 5.41560412 -26.85631009 2.05024435 -22 -1 C-14.48022104 -3.95419888 -7.08708635 -4.01155831 0 0 Z " fill="#000000" transform="translate(1961,869)"/>
<path d="M0 0 C3.56518584 3.22187165 5.7589136 6.55356586 6.23828125 11.41796875 C6.43217042 18.65309612 5.62805503 24.1035683 0.57421875 29.53125 C-4.83711478 34.34132425 -9.52164253 35.4302562 -16.57421875 35.2421875 C-22.72298812 34.6283007 -25.98827699 31.28934432 -29.80078125 26.81640625 C-32.87350482 22.16228098 -32.65727909 16.22006451 -31.57421875 10.9140625 C-29.85726719 5.41560412 -26.85631009 2.05024435 -22 -1 C-14.48022104 -3.95419888 -7.08708635 -4.01155831 0 0 Z " fill="#000000" transform="translate(1802,869)"/>
<path d="M0 0 C1.32 0.66 2.64 1.32 4 2 C3.67 5.3 3.34 8.6 3 12 C7.62 12 12.24 12 17 12 C16 18 16 18 14.296875 19.86328125 C11.43356854 21.28032577 9.4296412 21.30105861 6.25 21.1875 C4.77273438 21.14689453 4.77273438 21.14689453 3.265625 21.10546875 C2.51796875 21.07066406 1.7703125 21.03585937 1 21 C0.90912109 22.485 0.90912109 22.485 0.81640625 24 C0.05963158 36.02007892 0.05963158 36.02007892 -0.5625 40.375 C-1.07362691 44.61005153 -1.08871976 48.74145135 -1 53 C3.29299643 54.26264601 5.87831311 53.62950412 10 52 C10.75 54.1875 10.75 54.1875 11 57 C8.28137865 61.84623805 4.19698988 64.37971128 -1 66 C-6.0816647 66.75908684 -10.33062342 67.12585862 -14.6875 64.1875 C-18.35893085 55.27116794 -15.36072481 44.02037766 -14 34.8125 C-13.80658836 33.4655956 -13.6138756 32.11859064 -13.421875 30.77148438 C-12.95474777 27.51327191 -12.48065407 24.25623958 -12 21 C-13.65 20.67 -15.3 20.34 -17 20 C-16.19733065 12.75008327 -10.27903451 7.67797736 -4.84765625 3.2421875 C-3.2668669 2.11074318 -1.63862456 1.04593057 0 0 Z " fill="#000000" transform="translate(2040,1499)"/>
<path d="M0 0 C1 1 1 1 1.01953125 2.99609375 C0.95121094 3.80175781 0.88289063 4.60742188 0.8125 5.4375 C0.75707031 6.24058594 0.70164062 7.04367187 0.64453125 7.87109375 C0 10 0 10 -1.8046875 11.3984375 C-4 12 -4 12 -5.96484375 11.35546875 C-6.94130859 10.77732422 -6.94130859 10.77732422 -7.9375 10.1875 C-12.21977379 7.81254383 -12.21977379 7.81254383 -17 7 C-20.07170006 8.04887319 -21.54685622 9.21192386 -23.16796875 12.03125 C-26.91681966 20.15150467 -27.88290714 27.60445635 -26.4375 36.4375 C-25.15582844 39.30355469 -25.15582844 39.30355469 -21.8125 40.5 C-15.43488738 41.33640821 -11.32209943 39.25239409 -6 36 C-5.01 36 -4.02 36 -3 36 C-3.41618776 41.3063939 -4.10249401 44.29736931 -8 48 C-14.6089385 53.08272177 -20.79801232 54.06473734 -29 53 C-34.53565183 51.12183241 -37.49612832 48.01313358 -40.08984375 42.81640625 C-41.22914121 39.29094073 -41.34282432 35.97914405 -41.3125 32.3125 C-41.30686035 31.60351562 -41.3012207 30.89453125 -41.29541016 30.1640625 C-41.02920537 18.58810781 -37.06636322 10.67042413 -28.75 2.6875 C-20.32642329 -4.13689879 -9.42175057 -4.8070156 0 0 Z " fill="#000000" transform="translate(2887,1512)"/>
<path d="M0 0 C1.62418745 -0.08090971 3.24951745 -0.13914995 4.875 -0.1875 C5.77992188 -0.22230469 6.68484375 -0.25710938 7.6171875 -0.29296875 C8.79667969 -0.14794922 8.79667969 -0.14794922 10 0 C15.94781391 8.92172086 10.81153451 26.05523979 9.5 36.25 C9.25843937 38.17048811 9.01754857 40.09106059 8.77734375 42.01171875 C8.19261278 46.67548772 7.59883297 51.33802166 7 56 C3.37 56 -0.26 56 -4 56 C-8.35721055 47.28557891 -4.21515532 31.4019816 -3.0625 21.9375 C-2.87756351 20.35750268 -2.69331533 18.77742465 -2.50976562 17.19726562 C-2.33135827 15.68221745 -2.15234448 14.16724054 -1.97265625 12.65234375 C-1.89032242 11.95648666 -1.80798859 11.26062958 -1.72315979 10.54368591 C-1.28942442 6.99193672 -0.75971804 3.49706785 0 0 Z " fill="#000000" transform="translate(2258,1509)"/>
<path d="M0 0 C1.62418745 -0.08090971 3.24951745 -0.13914995 4.875 -0.1875 C5.77992188 -0.22230469 6.68484375 -0.25710938 7.6171875 -0.29296875 C8.79667969 -0.14794922 8.79667969 -0.14794922 10 0 C15.94781391 8.92172086 10.81153451 26.05523979 9.5 36.25 C9.25843937 38.17048811 9.01754857 40.09106059 8.77734375 42.01171875 C8.19261278 46.67548772 7.59883297 51.33802166 7 56 C3.37 56 -0.26 56 -4 56 C-8.35721055 47.28557891 -4.21515532 31.4019816 -3.0625 21.9375 C-2.87756351 20.35750268 -2.69331533 18.77742465 -2.50976562 17.19726562 C-2.33135827 15.68221745 -2.15234448 14.16724054 -1.97265625 12.65234375 C-1.89032242 11.95648666 -1.80798859 11.26062958 -1.72315979 10.54368591 C-1.28942442 6.99193672 -0.75971804 3.49706785 0 0 Z " fill="#000000" transform="translate(2122,1509)"/>
<path d="M0 0 C3.0125524 1.13343556 3.66380013 2.87231032 4.97265625 5.7421875 C6.18088842 12.86068871 5.21625879 19.26452774 1.6640625 25.5390625 C-1.19779706 29.26675024 -4.6971751 31.9181781 -9.02734375 33.7421875 C-11.80859375 33.890625 -11.80859375 33.890625 -14.02734375 33.7421875 C-14.68734375 32.4221875 -15.34734375 31.1021875 -16.02734375 29.7421875 C-15.48464844 29.39027344 -14.94195313 29.03835938 -14.3828125 28.67578125 C-9.30959204 25.17480209 -6.91160115 22.63049187 -5.02734375 16.7421875 C-5.81109375 16.6390625 -6.59484375 16.5359375 -7.40234375 16.4296875 C-10.02734375 15.7421875 -10.02734375 15.7421875 -12.02734375 12.7421875 C-12.70530985 5.62354343 -12.70530985 5.62354343 -10.15234375 2.3046875 C-6.55300994 -0.34188148 -4.4672218 -0.28389821 0 0 Z " fill="#000000" transform="translate(2351.02734375,1487.2578125)"/>
<path d="M0 0 C2.0625 2.125 2.0625 2.125 3 5 C2.93249957 8.84752461 2.51858903 11.19100111 0.4375 14.4375 C-3.04320935 16.66872394 -5.97775799 16.79126072 -10 16 C-12.5 14.5 -12.5 14.5 -14 12 C-14.54719708 9.21841484 -14.58180519 6.7778346 -14 4 C-10.06115632 -1.12049678 -6.13016603 -1.80151818 0 0 Z " fill="#000000" transform="translate(2272,1488)"/>
<path d="M0 0 C2.0625 2.125 2.0625 2.125 3 5 C2.93249957 8.84752461 2.51858903 11.19100111 0.4375 14.4375 C-3.04320935 16.66872394 -5.97775799 16.79126072 -10 16 C-12.5 14.5 -12.5 14.5 -14 12 C-14.54719708 9.21841484 -14.58180519 6.7778346 -14 4 C-10.06115632 -1.12049678 -6.13016603 -1.80151818 0 0 Z " fill="#000000" transform="translate(2136,1488)"/>
</svg>
