<?xml version="1.0" encoding="UTF-8"?>
<svg version="1.1" xmlns="http://www.w3.org/2000/svg" width="512" height="512">
<path d="M0 0 C0.66378662 0.34208496 1.32757324 0.68416992 2.01147461 1.03662109 C5.67660808 3.00780761 9.07649862 5.07303304 12.35372925 7.64155579 C24.10851038 16.53768139 33.72473284 17.55737546 48.16015625 17.29296875 C50.24337231 17.29489553 52.32658892 17.30168333 54.40977478 17.31306458 C59.83404899 17.32989727 65.25576831 17.28169862 70.67962646 17.21887207 C76.23756955 17.16635865 81.79537889 17.17683169 87.35351562 17.18164062 C98.21560569 17.18193823 109.07604222 17.11337659 119.9375 17 C118.3525031 21.29945482 116.59391044 23.64269822 113.25 26.8125 C109.53797597 30.35133473 106.13242271 34.02647428 102.7824707 37.90112305 C99.13443973 42.05119878 95.28104948 46.014451 91.45507812 50 C87.25275578 54.4316973 83.49164677 59.03327596 79.9375 64 C80.61554688 64.63164062 81.29359375 65.26328125 81.9921875 65.9140625 C106.09782662 89.08485689 119.59319167 120.52636664 120.33984375 153.87329102 C120.46009467 167.34723962 119.67748235 180.02899609 115.9375 193 C115.62401611 194.09393066 115.62401611 194.09393066 115.30419922 195.20996094 C109.08451775 216.09131849 97.7879188 233.20757702 82.9375 249 C82.4115625 249.59039062 81.885625 250.18078125 81.34375 250.7890625 C60.91504413 272.78118973 28.64931381 285.18035496 -0.86328125 286.3125 C-15.39495938 286.65498458 -29.03305269 285.86963592 -43.0625 282 C-43.71782715 281.82871582 -44.3731543 281.65743164 -45.04833984 281.48095703 C-62.15113567 276.90761759 -78.33048709 267.59961308 -91.5625 255.9375 C-92.3875 255.298125 -93.2125 254.65875 -94.0625 254 C-97.38867576 255.10872525 -98.10469654 255.94175575 -100.2890625 258.5703125 C-103.87873355 262.80065975 -107.62537637 266.84537969 -111.4375 270.875 C-119.49240494 279.42937247 -127.35631796 288.1292181 -135.0625 297 C-138.55336922 295.53383493 -140.47968814 293.66719588 -142.9375 290.8125 C-146.89917683 286.29514243 -150.94951692 281.8800599 -155.0625 277.5 C-162.24641624 269.82703556 -169.41515695 262.14835599 -176.0625 254 C-179.33212178 255.4138905 -181.9769468 257.40529668 -184.78125 259.57958984 C-213.04569801 281.35429304 -246.74878903 289.20531165 -282.08984375 285.69970703 C-287.85989187 284.88738856 -293.46359796 283.60266882 -299.0625 282 C-299.7932373 281.79101074 -300.52397461 281.58202148 -301.27685547 281.36669922 C-322.15579046 275.14635148 -339.27179618 263.84880219 -355.0625 249 C-355.94808594 248.21109375 -355.94808594 248.21109375 -356.8515625 247.40625 C-377.4445523 228.27721682 -390.88050788 197.47005115 -392.2265625 169.60351562 C-393.37719456 132.84082144 -385.15302289 100.19063464 -360.1875 72.4375 C-359.48882812 71.69371094 -358.79015625 70.94992188 -358.0703125 70.18359375 C-355.94701865 67.87440842 -353.99719927 65.46825983 -352.0625 63 C-352.62795532 62.39696045 -352.62795532 62.39696045 -353.20483398 61.78173828 C-359.74440947 54.80313817 -366.26523023 47.81618536 -372.6328125 40.6796875 C-376.45902319 36.4597831 -380.36718813 32.31606176 -384.27929688 28.17578125 C-392.0625 19.89577793 -392.0625 19.89577793 -392.0625 17 C-390.34933594 17.01451706 -390.34933594 17.01451706 -388.6015625 17.02932739 C-377.77525549 17.11445706 -366.94989913 17.14610015 -356.1232605 17.12697029 C-350.55854944 17.11881382 -344.99515606 17.12872277 -339.43066406 17.18164062 C-334.04837408 17.2321324 -328.66805369 17.23291978 -323.28564453 17.20095444 C-321.24458532 17.19723753 -319.20341199 17.21066281 -317.16259766 17.24249649 C-302.50582342 17.45541002 -293.72391556 14.89023662 -282.0625 6 C-280.54964496 5.04863328 -279.02580481 4.11354191 -277.4765625 3.22265625 C-276.85031982 2.86018799 -276.22407715 2.49771973 -275.57885742 2.12426758 C-191.38606516 -45.13976412 -85.08161082 -44.06346886 0 0 Z M-230.0625 28 C-226.60200546 30.85600309 -222.76819108 32.69910431 -218.75 34.625 C-206.13468272 40.82780819 -194.65331844 47.67424104 -184.0625 57 C-183.21042969 57.73089844 -182.35835937 58.46179688 -181.48046875 59.21484375 C-157.01057974 80.60250404 -142.4223724 108.12286413 -137.0625 140 C-136.4025 140 -135.7425 140 -135.0625 140 C-134.84335937 138.8140625 -134.62421875 137.628125 -134.3984375 136.40625 C-127.12730397 98.63718705 -105.64250114 67.82697554 -74.0625 46 C-63.87627849 39.42685746 -53.2168797 33.74611847 -42.0625 29 C-66.93174049 12.42050634 -106.23585343 9.77376255 -135.1875 9.75 C-135.93205444 9.74932526 -136.67660889 9.74865051 -137.44372559 9.74795532 C-168.68601134 9.79258716 -201.35204162 15.15584757 -230.0625 28 Z M-322.0625 94 C-322.80886719 94.64582031 -323.55523437 95.29164063 -324.32421875 95.95703125 C-339.73023953 110.33396616 -349.4771368 132.1341224 -350.265625 153.09375 C-350.71354365 178.16301996 -342.65082061 200.36720185 -325.49023438 218.73193359 C-310.18811699 234.29048181 -288.67020786 243.85342134 -266.80932617 244.24145508 C-243.26671866 244.33099015 -222.85189214 236.51906762 -205.0625 221 C-204.44890625 220.47019531 -203.8353125 219.94039062 -203.203125 219.39453125 C-188.30423486 205.55496587 -178.69262889 183.84021322 -177.82421875 163.671875 C-177.21592083 137.02896907 -185.46569382 115.32373998 -203.75 95.8125 C-220.70454912 79.51105369 -243.13178381 71.40267878 -266.44165039 71.58227539 C-287.65972481 72.22622608 -306.13423994 80.1658049 -322.0625 94 Z M-70.0625 98 C-70.76246094 98.68707031 -71.46242188 99.37414062 -72.18359375 100.08203125 C-87.57815813 116.25682696 -94.65344698 138.38389425 -94.47973633 160.37817383 C-93.75553071 184.40032561 -83.47692134 205.75576707 -66.09375 222.2421875 C-47.3407908 238.47070989 -23.67906739 245.76643238 0.9375 244 C17.5784525 241.97087066 33.02369315 235.70803239 45.9375 225 C46.78828125 224.31164062 47.6390625 223.62328125 48.515625 222.9140625 C65.29955746 208.65286835 75.01792551 188.63759414 77.9375 167 C79.61163939 141.31457378 71.92903927 118.47727548 54.9375 99 C54.40769531 98.38640625 53.87789062 97.7728125 53.33203125 97.140625 C40.12187219 82.91931796 19.12656958 73.01581753 -0.1652832 71.87573242 C-27.42422125 70.9534912 -50.37675357 78.64289709 -70.0625 98 Z " fill="#000000" transform="translate(392.0625,124)"/>
<path d="M0 0 C0.95519531 0.66128906 0.95519531 0.66128906 1.9296875 1.3359375 C10.26245726 7.74291158 15.18453102 17.73812408 17.6875 27.75 C19.0371502 41.78636206 17.11304811 53.29557593 9 65 C8.38125 65.9075 7.7625 66.815 7.125 67.75 C-2.23699864 77.66270445 -14.36244955 82.79444695 -27.875 83.3125 C-42.27680767 82.97283472 -53.19232353 77.19103841 -63 67 C-71.90493783 56.36076716 -75.00971702 44.76886841 -74 31 C-71.70594327 18.03045092 -65.86236727 7.1513691 -55.25 -0.6875 C-38.0046915 -12.24497332 -16.96073093 -11.99661456 0 0 Z " fill="#000000" transform="translate(156,245)"/>
<path d="M0 0 C9.5979213 9.38463416 14.55463891 21.02248555 15.0625 34.375 C14.87475964 46.89728221 10.22379811 58.26007959 1.8125 67.5 C-7.70824606 76.45786411 -20.49658208 81.3230499 -33.51953125 81 C-45.24987469 79.90081701 -57.05661689 75.51371128 -65.1875 66.75 C-74.78326683 55.01958164 -78.36431807 42.83008295 -77.1875 27.75 C-74.78844662 15.36452564 -68.77888302 3.94278983 -58.1875 -3.25 C-38.04359183 -14.99381691 -18.94120651 -13.37026342 0 0 Z " fill="#000000" transform="translate(415.1875,247.25)"/>
</svg>
